<svg width="19" height="27" viewBox="0 0 19 27" fill="none" xmlns="http://www.w3.org/2000/svg">
<path d="M18.5417 9.625C18.5417 4.63142 14.4936 0.583336 9.50001 0.583336C4.50643 0.583336 0.458344 4.63142 0.458344 9.625C0.458344 11.4165 0.987927 13.0828 1.88564 14.4881H1.8753C4.92364 19.2608 9.50001 26.4167 9.50001 26.4167L17.1247 14.4881H17.1157C18.0121 13.0828 18.5417 11.4165 18.5417 9.625ZM9.50001 13.5C7.35972 13.5 5.62501 11.7653 5.62501 9.625C5.62501 7.48471 7.35972 5.75 9.50001 5.75C11.6403 5.75 13.375 7.48471 13.375 9.625C13.375 11.7653 11.6403 13.5 9.50001 13.5Z" fill="#E4D9D9"/>
</svg>
